<svg xmlns="http://www.w3.org/2000/svg" viewBox="0 0 1040 520" width="1040" height="520" role="img" aria-label="PackML state chart">
<defs>
    <linearGradient id="gBg" x1="0" x2="1" y1="0" y2="1">
      <stop offset="0" stop-color="#0d1117"/>
      <stop offset="1" stop-color="#161b22"/>
    </linearGradient>
    <style>
      .t{font-family:'SFMono-Regular',Consolas,monospace}
      .lb{fill:#8b949e;font-size:10px;text-transform:uppercase;letter-spacing:1.6px}
      .va{fill:#e6edf3;font-size:20px;font-weight:700}
      .vs{fill:#e6edf3;font-size:14px;font-weight:600}
      .lo{fill:#79c0ff;font-size:11px}
      .sub{fill:#8b949e;font-size:11px}
      .g{fill:#3fb950} .a{fill:#e3b341} .r{fill:#f85149}
      .p{fill:#a371f7} .o{fill:#f0883e}
      .pulse{animation:plz 1.8s ease-out infinite}
      @keyframes plz{
        0%{transform:scale(1);opacity:.85}
        45%{transform:scale(1.35);opacity:.3}
        100%{transform:scale(1.8);opacity:0}
      }
      .spin{animation:sp 4s linear infinite;transform-origin:center}
      @keyframes sp{from{transform:rotate(0)}to{transform:rotate(360deg)}}
    </style>
  </defs>
<defs>  <marker id="arr" viewBox="0 0 8 8" refX="8" refY="4" markerWidth="6" markerHeight="6" orient="auto">    <path d="M0,0 L8,4 L0,8 z" fill="#8b949e"/>  </marker></defs>
<rect width="1040" height="36" rx="10" fill="url(#gBg)"/>
  <rect x="0" y="0" width="1040" height="36" rx="10" fill="#161b22"/>
  <rect x="0" y="26" width="1040" height="10" fill="#161b22"/>
  <circle cx="22" cy="18" r="6" fill="#ff5f56"/>
  <circle cx="44" cy="18" r="6" fill="#ffbd2e"/>
  <circle cx="66" cy="18" r="6" fill="#27c93f"/>
  <text x="520" y="22" text-anchor="middle" class="t" font-size="12" fill="#8b949e">⚙ PackML state chart · ISA-88 · current = EXECUTE</text>
<rect y="36" width="1040" height="484" fill="url(#gBg)"/>
<line x1="136" y1="310" x2="194" y2="310" stroke="#30363d" stroke-width="1.5" marker-end="url(#arr)" stroke-dasharray="3 3"/>
<line x1="266" y1="310" x2="324" y2="310" stroke="#30363d" stroke-width="1.5" marker-end="url(#arr)" stroke-dasharray="3 3"/>
<line x1="396" y1="310" x2="454" y2="310" stroke="#30363d" stroke-width="1.5" marker-end="url(#arr)" stroke-dasharray="3 3"/>
<line x1="526" y1="310" x2="584" y2="310" stroke="#30363d" stroke-width="1.5" marker-end="url(#arr)" stroke-dasharray="3 3"/>
<line x1="656" y1="310" x2="714" y2="310" stroke="#30363d" stroke-width="1.5" marker-end="url(#arr)" stroke-dasharray="3 3"/>
<line x1="786" y1="310" x2="844" y2="310" stroke="#30363d" stroke-width="1.5" marker-end="url(#arr)" stroke-dasharray="3 3"/>
<line x1="916" y1="310" x2="194" y2="310" stroke="#30363d" stroke-width="1.5" marker-end="url(#arr)" stroke-dasharray="3 3"/>
<line x1="526" y1="310" x2="324" y2="200" stroke="#30363d" stroke-width="1.5" marker-end="url(#arr)" stroke-dasharray="3 3"/>
<line x1="396" y1="200" x2="454" y2="200" stroke="#30363d" stroke-width="1.5" marker-end="url(#arr)" stroke-dasharray="3 3"/>
<line x1="526" y1="200" x2="584" y2="200" stroke="#30363d" stroke-width="1.5" marker-end="url(#arr)" stroke-dasharray="3 3"/>
<line x1="656" y1="200" x2="454" y2="310" stroke="#30363d" stroke-width="1.5" marker-end="url(#arr)" stroke-dasharray="3 3"/>
<line x1="526" y1="310" x2="324" y2="420" stroke="#30363d" stroke-width="1.5" marker-end="url(#arr)" stroke-dasharray="3 3"/>
<line x1="396" y1="420" x2="454" y2="420" stroke="#30363d" stroke-width="1.5" marker-end="url(#arr)" stroke-dasharray="3 3"/>
<line x1="526" y1="420" x2="584" y2="420" stroke="#30363d" stroke-width="1.5" marker-end="url(#arr)" stroke-dasharray="3 3"/>
<line x1="656" y1="420" x2="454" y2="310" stroke="#30363d" stroke-width="1.5" marker-end="url(#arr)" stroke-dasharray="3 3"/>
<line x1="526" y1="310" x2="714" y2="90" stroke="#30363d" stroke-width="1.5" marker-end="url(#arr)" stroke-dasharray="3 3"/>
<line x1="786" y1="90" x2="844" y2="90" stroke="#30363d" stroke-width="1.5" marker-end="url(#arr)" stroke-dasharray="3 3"/>
<line x1="916" y1="90" x2="844" y2="200" stroke="#30363d" stroke-width="1.5" marker-end="url(#arr)" stroke-dasharray="3 3"/>
<line x1="916" y1="200" x2="64" y2="310" stroke="#30363d" stroke-width="1.5" marker-end="url(#arr)" stroke-dasharray="3 3"/>
<line x1="266" y1="310" x2="194" y2="90" stroke="#30363d" stroke-width="1.5" marker-end="url(#arr)" stroke-dasharray="3 3"/>
<line x1="266" y1="90" x2="64" y2="310" stroke="#30363d" stroke-width="1.5" marker-end="url(#arr)" stroke-dasharray="3 3"/>
<rect x="64" y="292" width="72" height="36" rx="8" fill="#161b22" stroke="#8b949e" stroke-width="1.5"/>
<text x="100" y="315" text-anchor="middle" class="t" font-size="10" font-weight="600" fill="#e6edf3">STOPPED</text>
<rect x="194" y="292" width="72" height="36" rx="8" fill="#161b22" stroke="#8b949e" stroke-width="1.5"/>
<text x="230" y="315" text-anchor="middle" class="t" font-size="10" font-weight="600" fill="#e6edf3">IDLE</text>
<rect x="324" y="292" width="72" height="36" rx="8" fill="#161b22" stroke="#3fb950" stroke-width="1.5"/>
<text x="360" y="315" text-anchor="middle" class="t" font-size="10" font-weight="600" fill="#e6edf3">STARTING</text>
<circle cx="490" cy="310" r="36" fill="#3fb950" opacity="0.22" class="pulse"/>
<rect x="454" y="292" width="72" height="36" rx="8" fill="#161b22" stroke="#3fb950" stroke-width="3"/>
<text x="490" y="315" text-anchor="middle" class="t" font-size="10" font-weight="700" fill="#e6edf3">EXECUTE</text>
<rect x="584" y="292" width="72" height="36" rx="8" fill="#161b22" stroke="#3fb950" stroke-width="1.5"/>
<text x="620" y="315" text-anchor="middle" class="t" font-size="10" font-weight="600" fill="#e6edf3">COMPLETING</text>
<rect x="714" y="292" width="72" height="36" rx="8" fill="#161b22" stroke="#3fb950" stroke-width="1.5"/>
<text x="750" y="315" text-anchor="middle" class="t" font-size="10" font-weight="600" fill="#e6edf3">COMPLETE</text>
<rect x="844" y="292" width="72" height="36" rx="8" fill="#161b22" stroke="#8b949e" stroke-width="1.5"/>
<text x="880" y="315" text-anchor="middle" class="t" font-size="10" font-weight="600" fill="#e6edf3">RESETTING</text>
<rect x="324" y="182" width="72" height="36" rx="8" fill="#161b22" stroke="#e3b341" stroke-width="1.5"/>
<text x="360" y="205" text-anchor="middle" class="t" font-size="10" font-weight="600" fill="#e6edf3">HOLDING</text>
<rect x="454" y="182" width="72" height="36" rx="8" fill="#161b22" stroke="#e3b341" stroke-width="1.5"/>
<text x="490" y="205" text-anchor="middle" class="t" font-size="10" font-weight="600" fill="#e6edf3">HELD</text>
<rect x="584" y="182" width="72" height="36" rx="8" fill="#161b22" stroke="#e3b341" stroke-width="1.5"/>
<text x="620" y="205" text-anchor="middle" class="t" font-size="10" font-weight="600" fill="#e6edf3">UNHOLDING</text>
<rect x="324" y="402" width="72" height="36" rx="8" fill="#161b22" stroke="#79c0ff" stroke-width="1.5"/>
<text x="360" y="425" text-anchor="middle" class="t" font-size="10" font-weight="600" fill="#e6edf3">SUSPENDING</text>
<rect x="454" y="402" width="72" height="36" rx="8" fill="#161b22" stroke="#79c0ff" stroke-width="1.5"/>
<text x="490" y="425" text-anchor="middle" class="t" font-size="10" font-weight="600" fill="#e6edf3">SUSPENDED</text>
<rect x="584" y="402" width="72" height="36" rx="8" fill="#161b22" stroke="#79c0ff" stroke-width="1.5"/>
<text x="620" y="425" text-anchor="middle" class="t" font-size="10" font-weight="600" fill="#e6edf3">UNSUSPENDING</text>
<rect x="714" y="72" width="72" height="36" rx="8" fill="#161b22" stroke="#f85149" stroke-width="1.5"/>
<text x="750" y="95" text-anchor="middle" class="t" font-size="10" font-weight="600" fill="#e6edf3">ABORTING</text>
<rect x="844" y="72" width="72" height="36" rx="8" fill="#161b22" stroke="#f85149" stroke-width="1.5"/>
<text x="880" y="95" text-anchor="middle" class="t" font-size="10" font-weight="600" fill="#e6edf3">ABORTED</text>
<rect x="844" y="182" width="72" height="36" rx="8" fill="#161b22" stroke="#f85149" stroke-width="1.5"/>
<text x="880" y="205" text-anchor="middle" class="t" font-size="10" font-weight="600" fill="#e6edf3">CLEARING</text>
<rect x="194" y="72" width="72" height="36" rx="8" fill="#161b22" stroke="#8b949e" stroke-width="1.5"/>
<text x="230" y="95" text-anchor="middle" class="t" font-size="10" font-weight="600" fill="#e6edf3">STOPPING</text>
<text x="24" y="486" class="t sub">families:</text>
<rect x="108" y="476" width="12" height="12" rx="3" fill="#8b949e"/>
<text x="124" y="486" class="t" font-size="11" fill="#8b949e">idle</text>
<rect x="218" y="476" width="12" height="12" rx="3" fill="#3fb950"/>
<text x="234" y="486" class="t" font-size="11" fill="#8b949e">run</text>
<rect x="328" y="476" width="12" height="12" rx="3" fill="#e3b341"/>
<text x="344" y="486" class="t" font-size="11" fill="#8b949e">hold</text>
<rect x="438" y="476" width="12" height="12" rx="3" fill="#79c0ff"/>
<text x="454" y="486" class="t" font-size="11" fill="#8b949e">suspend</text>
<rect x="548" y="476" width="12" height="12" rx="3" fill="#f85149"/>
<text x="564" y="486" class="t" font-size="11" fill="#8b949e">abort</text>
<text x="1016" y="486" text-anchor="end" class="t sub">writes packml.current to re-halo</text>
</svg>