<svg xmlns="http://www.w3.org/2000/svg" viewBox="0 0 1040 436" width="1040" height="436" role="img" aria-label="UDT type hierarchy">
<defs>
    <linearGradient id="gBg" x1="0" x2="1" y1="0" y2="1">
      <stop offset="0" stop-color="#0d1117"/>
      <stop offset="1" stop-color="#161b22"/>
    </linearGradient>
    <style>
      .t{font-family:'SFMono-Regular',Consolas,monospace}
      .lb{fill:#8b949e;font-size:10px;text-transform:uppercase;letter-spacing:1.6px}
      .va{fill:#e6edf3;font-size:20px;font-weight:700}
      .vs{fill:#e6edf3;font-size:14px;font-weight:600}
      .lo{fill:#79c0ff;font-size:11px}
      .sub{fill:#8b949e;font-size:11px}
      .g{fill:#3fb950} .a{fill:#e3b341} .r{fill:#f85149}
      .p{fill:#a371f7} .o{fill:#f0883e}
      .pulse{animation:plz 1.8s ease-out infinite}
      @keyframes plz{
        0%{transform:scale(1);opacity:.85}
        45%{transform:scale(1.35);opacity:.3}
        100%{transform:scale(1.8);opacity:0}
      }
      .spin{animation:sp 4s linear infinite;transform-origin:center}
      @keyframes sp{from{transform:rotate(0)}to{transform:rotate(360deg)}}
    </style>
  </defs>
<rect width="1040" height="36" rx="10" fill="url(#gBg)"/>
  <rect x="0" y="0" width="1040" height="36" rx="10" fill="#161b22"/>
  <rect x="0" y="26" width="1040" height="10" fill="#161b22"/>
  <circle cx="22" cy="18" r="6" fill="#ff5f56"/>
  <circle cx="44" cy="18" r="6" fill="#ffbd2e"/>
  <circle cx="66" cy="18" r="6" fill="#27c93f"/>
  <text x="520" y="22" text-anchor="middle" class="t" font-size="12" fill="#8b949e">🌲 UDT tree · 443 instances across 21 types</text>
<rect y="36" width="1040" height="400" fill="url(#gBg)"/>
<rect x="24" y="52" width="480" height="154" rx="6" fill="#161b22" stroke="#30363d" stroke-width="1"/>
<text x="38" y="74" class="t" font-size="11" font-weight="700" fill="#3fb950">SVG composition ladder</text>
<line x1="48" y1="104" x2="48" y2="188" stroke="#30363d" stroke-width="1"/>
<line x1="48" y1="104" x2="68" y2="104" stroke="#30363d" stroke-width="1"/>
<circle cx="48" cy="104" r="4" fill="#3fb950"/>
<a href="https://aicraftspeopleguild.github.io/guild/apps/udt-editor/#udt=svgatom" target="_blank">
<text x="76" y="108" class="t" font-size="13" font-weight="600" fill="#e6edf3">SvgAtom</text>
<text x="139" y="108" class="t sub"> · primitive — chip, dot, bar, divider</text>
<g><rect x="444" y="80" rx="11" width="60" height="22" fill="none" stroke="#3fb950" stroke-width="1" opacity=".6"/><text x="474" y="95" text-anchor="middle" class="t" font-size="11" fill="#3fb950"> 11</text></g>
</a>
<line x1="48" y1="132" x2="68" y2="132" stroke="#30363d" stroke-width="1"/>
<circle cx="48" cy="132" r="4" fill="#3fb950"/>
<a href="https://aicraftspeopleguild.github.io/guild/apps/udt-editor/#udt=svgmolecule" target="_blank">
<text x="76" y="136" class="t" font-size="13" font-weight="600" fill="#e6edf3">SvgMolecule</text>
<text x="175" y="136" class="t sub"> · atoms bound together — tag card, stat block, kv row</text>
<g><rect x="444" y="108" rx="11" width="60" height="22" fill="none" stroke="#3fb950" stroke-width="1" opacity=".6"/><text x="474" y="123" text-anchor="middle" class="t" font-size="11" fill="#3fb950">  4</text></g>
</a>
<line x1="48" y1="160" x2="68" y2="160" stroke="#30363d" stroke-width="1"/>
<circle cx="48" cy="160" r="4" fill="#3fb950"/>
<a href="https://aicraftspeopleguild.github.io/guild/apps/udt-editor/#udt=svgorganism" target="_blank">
<text x="76" y="164" class="t" font-size="13" font-weight="600" fill="#e6edf3">SvgOrganism</text>
<text x="175" y="164" class="t sub"> · live dashboards — scada, heatmap, network</text>
<g><rect x="444" y="136" rx="11" width="60" height="22" fill="none" stroke="#3fb950" stroke-width="1" opacity=".6"/><text x="474" y="151" text-anchor="middle" class="t" font-size="11" fill="#3fb950"> 20</text></g>
</a>
<line x1="48" y1="188" x2="68" y2="188" stroke="#30363d" stroke-width="1"/>
<circle cx="48" cy="188" r="4" fill="#3fb950"/>
<a href="https://aicraftspeopleguild.github.io/guild/apps/udt-editor/#udt=page" target="_blank">
<text x="76" y="192" class="t" font-size="13" font-weight="600" fill="#e6edf3">Page</text>
<text x="112" y="192" class="t sub"> · full pages composed of organisms</text>
<g><rect x="444" y="164" rx="11" width="60" height="22" fill="none" stroke="#3fb950" stroke-width="1" opacity=".6"/><text x="474" y="179" text-anchor="middle" class="t" font-size="11" fill="#3fb950"> 63</text></g>
</a>
<rect x="536" y="52" width="480" height="154" rx="6" fill="#161b22" stroke="#30363d" stroke-width="1"/>
<text x="550" y="74" class="t" font-size="11" font-weight="700" fill="#a371f7">Automation stack</text>
<line x1="560" y1="104" x2="560" y2="188" stroke="#30363d" stroke-width="1"/>
<line x1="560" y1="104" x2="580" y2="104" stroke="#30363d" stroke-width="1"/>
<circle cx="560" cy="104" r="4" fill="#a371f7"/>
<a href="https://aicraftspeopleguild.github.io/guild/apps/udt-editor/#udt=tool" target="_blank">
<text x="588" y="108" class="t" font-size="13" font-weight="600" fill="#e6edf3">Tool</text>
<text x="624" y="108" class="t sub"> · one shell/py call the runner can invoke</text>
<g><rect x="956" y="80" rx="11" width="60" height="22" fill="none" stroke="#a371f7" stroke-width="1" opacity=".6"/><text x="986" y="95" text-anchor="middle" class="t" font-size="11" fill="#a371f7"> 84</text></g>
</a>
<line x1="560" y1="132" x2="580" y2="132" stroke="#30363d" stroke-width="1"/>
<circle cx="560" cy="132" r="4" fill="#a371f7"/>
<a href="https://aicraftspeopleguild.github.io/guild/apps/udt-editor/#udt=script" target="_blank">
<text x="588" y="136" class="t" font-size="13" font-weight="600" fill="#e6edf3">Script</text>
<text x="642" y="136" class="t sub"> · tool + @tag-event trigger</text>
<g><rect x="956" y="108" rx="11" width="60" height="22" fill="none" stroke="#a371f7" stroke-width="1" opacity=".6"/><text x="986" y="123" text-anchor="middle" class="t" font-size="11" fill="#a371f7">  3</text></g>
</a>
<line x1="560" y1="160" x2="580" y2="160" stroke="#30363d" stroke-width="1"/>
<circle cx="560" cy="160" r="4" fill="#a371f7"/>
<a href="https://aicraftspeopleguild.github.io/guild/apps/udt-editor/#udt=pipeline" target="_blank">
<text x="588" y="164" class="t" font-size="13" font-weight="600" fill="#e6edf3">Pipeline</text>
<text x="660" y="164" class="t sub"> · ordered script graph with gating</text>
<g><rect x="956" y="136" rx="11" width="60" height="22" fill="none" stroke="#a371f7" stroke-width="1" opacity=".6"/><text x="986" y="151" text-anchor="middle" class="t" font-size="11" fill="#a371f7">  1</text></g>
</a>
<line x1="560" y1="188" x2="580" y2="188" stroke="#30363d" stroke-width="1"/>
<circle cx="560" cy="188" r="4" fill="#a371f7"/>
<a href="https://aicraftspeopleguild.github.io/guild/apps/udt-editor/#udt=api" target="_blank">
<text x="588" y="192" class="t" font-size="13" font-weight="600" fill="#e6edf3">Api</text>
<text x="615" y="192" class="t sub"> · http watcher that writes to a tag</text>
<g><rect x="956" y="164" rx="11" width="60" height="22" fill="none" stroke="#a371f7" stroke-width="1" opacity=".6"/><text x="986" y="179" text-anchor="middle" class="t" font-size="11" fill="#a371f7">  2</text></g>
</a>
<rect x="24" y="222" width="480" height="154" rx="6" fill="#161b22" stroke="#30363d" stroke-width="1"/>
<text x="38" y="244" class="t" font-size="11" font-weight="700" fill="#f0883e">Catalog entities</text>
<line x1="48" y1="274" x2="48" y2="358" stroke="#30363d" stroke-width="1"/>
<line x1="48" y1="274" x2="68" y2="274" stroke="#30363d" stroke-width="1"/>
<circle cx="48" cy="274" r="4" fill="#f0883e"/>
<a href="https://aicraftspeopleguild.github.io/guild/apps/udt-editor/#udt=whitepaper" target="_blank">
<text x="76" y="278" class="t" font-size="13" font-weight="600" fill="#e6edf3">WhitePaper</text>
<text x="166" y="278" class="t sub"> · authored published artefact</text>
<g><rect x="444" y="250" rx="11" width="60" height="22" fill="none" stroke="#f0883e" stroke-width="1" opacity=".6"/><text x="474" y="265" text-anchor="middle" class="t" font-size="11" fill="#f0883e"> 25</text></g>
</a>
<line x1="48" y1="302" x2="68" y2="302" stroke="#30363d" stroke-width="1"/>
<circle cx="48" cy="302" r="4" fill="#f0883e"/>
<a href="https://aicraftspeopleguild.github.io/guild/apps/udt-editor/#udt=member" target="_blank">
<text x="76" y="306" class="t" font-size="13" font-weight="600" fill="#e6edf3">Member</text>
<text x="130" y="306" class="t sub"> · charter signatory</text>
<g><rect x="444" y="278" rx="11" width="60" height="22" fill="none" stroke="#f0883e" stroke-width="1" opacity=".6"/><text x="474" y="293" text-anchor="middle" class="t" font-size="11" fill="#f0883e">  9</text></g>
</a>
<line x1="48" y1="330" x2="68" y2="330" stroke="#30363d" stroke-width="1"/>
<circle cx="48" cy="330" r="4" fill="#f0883e"/>
<a href="https://aicraftspeopleguild.github.io/guild/apps/udt-editor/#udt=program" target="_blank">
<text x="76" y="334" class="t" font-size="13" font-weight="600" fill="#e6edf3">Program</text>
<text x="139" y="334" class="t sub"> · governance body or working group</text>
<g><rect x="444" y="306" rx="11" width="60" height="22" fill="none" stroke="#f0883e" stroke-width="1" opacity=".6"/><text x="474" y="321" text-anchor="middle" class="t" font-size="11" fill="#f0883e"> 24</text></g>
</a>
<line x1="48" y1="358" x2="68" y2="358" stroke="#30363d" stroke-width="1"/>
<circle cx="48" cy="358" r="4" fill="#f0883e"/>
<a href="https://aicraftspeopleguild.github.io/guild/apps/udt-editor/#udt=packmlstate" target="_blank">
<text x="76" y="362" class="t" font-size="13" font-weight="600" fill="#e6edf3">PackMLState</text>
<text x="175" y="362" class="t sub"> · a single node in the PackML state chart</text>
<g><rect x="444" y="334" rx="11" width="60" height="22" fill="none" stroke="#f0883e" stroke-width="1" opacity=".6"/><text x="474" y="349" text-anchor="middle" class="t" font-size="11" fill="#f0883e">  9</text></g>
</a>
<rect x="536" y="222" width="480" height="154" rx="6" fill="#161b22" stroke="#30363d" stroke-width="1"/>
<text x="550" y="244" class="t" font-size="11" font-weight="700" fill="#e3b341">Fabric</text>
<line x1="560" y1="274" x2="560" y2="358" stroke="#30363d" stroke-width="1"/>
<line x1="560" y1="274" x2="580" y2="274" stroke="#30363d" stroke-width="1"/>
<circle cx="560" cy="274" r="4" fill="#e3b341"/>
<a href="https://aicraftspeopleguild.github.io/guild/apps/udt-editor/#udt=component" target="_blank">
<text x="588" y="278" class="t" font-size="13" font-weight="600" fill="#e6edf3">Component</text>
<text x="669" y="278" class="t sub"> · reusable UI fragment</text>
<g><rect x="956" y="250" rx="11" width="60" height="22" fill="none" stroke="#e3b341" stroke-width="1" opacity=".6"/><text x="986" y="265" text-anchor="middle" class="t" font-size="11" fill="#e3b341"> 63</text></g>
</a>
<line x1="560" y1="302" x2="580" y2="302" stroke="#30363d" stroke-width="1"/>
<circle cx="560" cy="302" r="4" fill="#e3b341"/>
<a href="https://aicraftspeopleguild.github.io/guild/apps/udt-editor/#udt=view" target="_blank">
<text x="588" y="306" class="t" font-size="13" font-weight="600" fill="#e6edf3">View</text>
<text x="624" y="306" class="t sub"> · named route into the site</text>
<g><rect x="956" y="278" rx="11" width="60" height="22" fill="none" stroke="#e3b341" stroke-width="1" opacity=".6"/><text x="986" y="293" text-anchor="middle" class="t" font-size="11" fill="#e3b341"> 39</text></g>
</a>
<line x1="560" y1="330" x2="580" y2="330" stroke="#30363d" stroke-width="1"/>
<circle cx="560" cy="330" r="4" fill="#e3b341"/>
<a href="https://aicraftspeopleguild.github.io/guild/apps/udt-editor/#udt=path" target="_blank">
<text x="588" y="334" class="t" font-size="13" font-weight="600" fill="#e6edf3">Path</text>
<text x="624" y="334" class="t sub"> · filesystem anchor for a UDT</text>
<g><rect x="956" y="306" rx="11" width="60" height="22" fill="none" stroke="#e3b341" stroke-width="1" opacity=".6"/><text x="986" y="321" text-anchor="middle" class="t" font-size="11" fill="#e3b341"> 49</text></g>
</a>
<line x1="560" y1="358" x2="580" y2="358" stroke="#30363d" stroke-width="1"/>
<circle cx="560" cy="358" r="4" fill="#e3b341"/>
<a href="https://aicraftspeopleguild.github.io/guild/apps/udt-editor/#udt=query" target="_blank">
<text x="588" y="362" class="t" font-size="13" font-weight="600" fill="#e6edf3">Query</text>
<text x="633" y="362" class="t sub"> · named SQL view into a db</text>
<g><rect x="956" y="334" rx="11" width="60" height="22" fill="none" stroke="#e3b341" stroke-width="1" opacity=".6"/><text x="986" y="349" text-anchor="middle" class="t" font-size="11" fill="#e3b341">  5</text></g>
</a>
<text x="24" y="418" class="t sub">counts pulled from tag.db.udts</text>
<text x="1016" y="418" text-anchor="end" class="t sub">click any type → UDT editor filter</text>
</svg>